<?xml version="1.0" encoding="UTF-8" standalone="no"?><svg xmlns="http://www.w3.org/2000/svg" xmlns:xlink="http://www.w3.org/1999/xlink" contentScriptType="application/ecmascript" contentStyleType="text/css" height="381px" preserveAspectRatio="none" style="width:2018px;height:381px;background:#FFFFFF;" version="1.1" viewBox="0 0 2018 381" width="2018px" zoomAndPan="magnify"><defs><filter height="300%" id="f97cru20zjo5o" width="300%" x="-1" y="-1"><feGaussianBlur result="blurOut" stdDeviation="2.0"/><feColorMatrix in="blurOut" result="blurOut2" type="matrix" values="0 0 0 0 0 0 0 0 0 0 0 0 0 0 0 0 0 0 .4 0"/><feOffset dx="4.0" dy="4.0" in="blurOut2" result="blurOut3"/><feBlend in="SourceGraphic" in2="blurOut3" mode="normal"/></filter></defs><g><!--MD5=[07513b2cfa2016c46090541be20532fe]
class Word--><rect codeLine="1" fill="#FEFECE" filter="url(#f97cru20zjo5o)" height="60.8047" id="Word" style="stroke:#A80036;stroke-width:1.5;" width="91" x="1139.5" y="229.5"/><ellipse cx="1166.2" cy="245.5" fill="#ADD1B2" rx="11" ry="11" style="stroke:#A80036;stroke-width:1.0;"/><path d="M1168.5438,241.1719 C1167.6063,240.7344 1167.0125,240.5938 1166.1375,240.5938 C1163.5125,240.5938 1161.5125,242.6719 1161.5125,245.3906 L1161.5125,246.5156 C1161.5125,249.0938 1163.6219,250.9844 1166.5125,250.9844 C1167.7313,250.9844 1168.8875,250.6875 1169.6375,250.1406 C1170.2156,249.7344 1170.5438,249.2813 1170.5438,248.8906 C1170.5438,248.4375 1170.1531,248.0469 1169.6844,248.0469 C1169.4656,248.0469 1169.2625,248.125 1169.075,248.3125 C1168.6219,248.7969 1168.6219,248.7969 1168.4344,248.8906 C1168.0125,249.1563 1167.325,249.2813 1166.5594,249.2813 C1164.5125,249.2813 1163.2156,248.1875 1163.2156,246.4844 L1163.2156,245.3906 C1163.2156,243.6094 1164.4656,242.2969 1166.2,242.2969 C1166.7781,242.2969 1167.3875,242.4531 1167.8563,242.7031 C1168.3406,242.9844 1168.5125,243.2031 1168.6063,243.6094 C1168.6688,244.0156 1168.7,244.1406 1168.8406,244.2656 C1168.9813,244.4063 1169.2156,244.5156 1169.4344,244.5156 C1169.7,244.5156 1169.9656,244.375 1170.1375,244.1563 C1170.2469,244 1170.2781,243.8125 1170.2781,243.3906 L1170.2781,241.9688 C1170.2781,241.5313 1170.2625,241.4063 1170.1688,241.25 C1170.0125,240.9844 1169.7313,240.8438 1169.4344,240.8438 C1169.1375,240.8438 1168.9344,240.9375 1168.7156,241.25 L1168.5438,241.1719 Z " fill="#000000"/><text fill="#000000" font-family="sans-serif" font-size="12" lengthAdjust="spacing" textLength="33" x="1182.8" y="249.6543">Word</text><line style="stroke:#A80036;stroke-width:1.5;" x1="1140.5" x2="1229.5" y1="261.5" y2="261.5"/><text fill="#000000" font-family="sans-serif" font-size="11" lengthAdjust="spacing" textLength="79" x="1145.5" y="275.7104">string m_word</text><line style="stroke:#A80036;stroke-width:1.5;" x1="1140.5" x2="1229.5" y1="282.3047" y2="282.3047"/><!--MD5=[93b688e73481b69f602da924c9c5eebd]
class Noun--><rect codeLine="5" fill="#FEFECE" filter="url(#f97cru20zjo5o)" height="48" id="Noun" style="stroke:#A80036;stroke-width:1.5;" width="62" x="1037" y="26"/><ellipse cx="1052" cy="42" fill="#ADD1B2" rx="11" ry="11" style="stroke:#A80036;stroke-width:1.0;"/><path d="M1054.3438,37.6719 C1053.4063,37.2344 1052.8125,37.0938 1051.9375,37.0938 C1049.3125,37.0938 1047.3125,39.1719 1047.3125,41.8906 L1047.3125,43.0156 C1047.3125,45.5938 1049.4219,47.4844 1052.3125,47.4844 C1053.5313,47.4844 1054.6875,47.1875 1055.4375,46.6406 C1056.0156,46.2344 1056.3438,45.7813 1056.3438,45.3906 C1056.3438,44.9375 1055.9531,44.5469 1055.4844,44.5469 C1055.2656,44.5469 1055.0625,44.625 1054.875,44.8125 C1054.4219,45.2969 1054.4219,45.2969 1054.2344,45.3906 C1053.8125,45.6563 1053.125,45.7813 1052.3594,45.7813 C1050.3125,45.7813 1049.0156,44.6875 1049.0156,42.9844 L1049.0156,41.8906 C1049.0156,40.1094 1050.2656,38.7969 1052,38.7969 C1052.5781,38.7969 1053.1875,38.9531 1053.6563,39.2031 C1054.1406,39.4844 1054.3125,39.7031 1054.4063,40.1094 C1054.4688,40.5156 1054.5,40.6406 1054.6406,40.7656 C1054.7813,40.9063 1055.0156,41.0156 1055.2344,41.0156 C1055.5,41.0156 1055.7656,40.875 1055.9375,40.6563 C1056.0469,40.5 1056.0781,40.3125 1056.0781,39.8906 L1056.0781,38.4688 C1056.0781,38.0313 1056.0625,37.9063 1055.9688,37.75 C1055.8125,37.4844 1055.5313,37.3438 1055.2344,37.3438 C1054.9375,37.3438 1054.7344,37.4375 1054.5156,37.75 L1054.3438,37.6719 Z " fill="#000000"/><text fill="#000000" font-family="sans-serif" font-size="12" lengthAdjust="spacing" textLength="30" x="1066" y="46.1543">Noun</text><line style="stroke:#A80036;stroke-width:1.5;" x1="1038" x2="1098" y1="58" y2="58"/><line style="stroke:#A80036;stroke-width:1.5;" x1="1038" x2="1098" y1="66" y2="66"/><!--MD5=[c6341f9a9745459cef2beb0d35a4960f]
class Conjunction--><rect codeLine="8" fill="#FEFECE" filter="url(#f97cru20zjo5o)" height="48" id="Conjunction" style="stroke:#A80036;stroke-width:1.5;" width="101" x="1134.5" y="26"/><ellipse cx="1149.5" cy="42" fill="#ADD1B2" rx="11" ry="11" style="stroke:#A80036;stroke-width:1.0;"/><path d="M1151.8438,37.6719 C1150.9063,37.2344 1150.3125,37.0938 1149.4375,37.0938 C1146.8125,37.0938 1144.8125,39.1719 1144.8125,41.8906 L1144.8125,43.0156 C1144.8125,45.5938 1146.9219,47.4844 1149.8125,47.4844 C1151.0313,47.4844 1152.1875,47.1875 1152.9375,46.6406 C1153.5156,46.2344 1153.8438,45.7813 1153.8438,45.3906 C1153.8438,44.9375 1153.4531,44.5469 1152.9844,44.5469 C1152.7656,44.5469 1152.5625,44.625 1152.375,44.8125 C1151.9219,45.2969 1151.9219,45.2969 1151.7344,45.3906 C1151.3125,45.6563 1150.625,45.7813 1149.8594,45.7813 C1147.8125,45.7813 1146.5156,44.6875 1146.5156,42.9844 L1146.5156,41.8906 C1146.5156,40.1094 1147.7656,38.7969 1149.5,38.7969 C1150.0781,38.7969 1150.6875,38.9531 1151.1563,39.2031 C1151.6406,39.4844 1151.8125,39.7031 1151.9063,40.1094 C1151.9688,40.5156 1152,40.6406 1152.1406,40.7656 C1152.2813,40.9063 1152.5156,41.0156 1152.7344,41.0156 C1153,41.0156 1153.2656,40.875 1153.4375,40.6563 C1153.5469,40.5 1153.5781,40.3125 1153.5781,39.8906 L1153.5781,38.4688 C1153.5781,38.0313 1153.5625,37.9063 1153.4688,37.75 C1153.3125,37.4844 1153.0313,37.3438 1152.7344,37.3438 C1152.4375,37.3438 1152.2344,37.4375 1152.0156,37.75 L1151.8438,37.6719 Z " fill="#000000"/><text fill="#000000" font-family="sans-serif" font-size="12" lengthAdjust="spacing" textLength="69" x="1163.5" y="46.1543">Conjunction</text><line style="stroke:#A80036;stroke-width:1.5;" x1="1135.5" x2="1234.5" y1="58" y2="58"/><line style="stroke:#A80036;stroke-width:1.5;" x1="1135.5" x2="1234.5" y1="66" y2="66"/><!--MD5=[2101aa756a4e25f9f9480b400c0eb634]
class Adjective--><rect codeLine="11" fill="#FEFECE" filter="url(#f97cru20zjo5o)" height="60.8047" id="Adjective" style="stroke:#A80036;stroke-width:1.5;" width="159" x="1270.5" y="19.5"/><ellipse cx="1317.75" cy="35.5" fill="#ADD1B2" rx="11" ry="11" style="stroke:#A80036;stroke-width:1.0;"/><path d="M1320.0938,31.1719 C1319.1563,30.7344 1318.5625,30.5938 1317.6875,30.5938 C1315.0625,30.5938 1313.0625,32.6719 1313.0625,35.3906 L1313.0625,36.5156 C1313.0625,39.0938 1315.1719,40.9844 1318.0625,40.9844 C1319.2813,40.9844 1320.4375,40.6875 1321.1875,40.1406 C1321.7656,39.7344 1322.0938,39.2813 1322.0938,38.8906 C1322.0938,38.4375 1321.7031,38.0469 1321.2344,38.0469 C1321.0156,38.0469 1320.8125,38.125 1320.625,38.3125 C1320.1719,38.7969 1320.1719,38.7969 1319.9844,38.8906 C1319.5625,39.1563 1318.875,39.2813 1318.1094,39.2813 C1316.0625,39.2813 1314.7656,38.1875 1314.7656,36.4844 L1314.7656,35.3906 C1314.7656,33.6094 1316.0156,32.2969 1317.75,32.2969 C1318.3281,32.2969 1318.9375,32.4531 1319.4063,32.7031 C1319.8906,32.9844 1320.0625,33.2031 1320.1563,33.6094 C1320.2188,34.0156 1320.25,34.1406 1320.3906,34.2656 C1320.5313,34.4063 1320.7656,34.5156 1320.9844,34.5156 C1321.25,34.5156 1321.5156,34.375 1321.6875,34.1563 C1321.7969,34 1321.8281,33.8125 1321.8281,33.3906 L1321.8281,31.9688 C1321.8281,31.5313 1321.8125,31.4063 1321.7188,31.25 C1321.5625,30.9844 1321.2813,30.8438 1320.9844,30.8438 C1320.6875,30.8438 1320.4844,30.9375 1320.2656,31.25 L1320.0938,31.1719 Z " fill="#000000"/><text fill="#000000" font-family="sans-serif" font-size="12" lengthAdjust="spacing" textLength="56" x="1338.25" y="39.6543">Adjective</text><line style="stroke:#A80036;stroke-width:1.5;" x1="1271.5" x2="1428.5" y1="51.5" y2="51.5"/><line style="stroke:#A80036;stroke-width:1.5;" x1="1271.5" x2="1428.5" y1="59.5" y2="59.5"/><text fill="#000000" font-family="sans-serif" font-size="11" lengthAdjust="spacing" textLength="147" x="1276.5" y="73.7104">aftterCollision(baseObject</text><!--MD5=[16b41efec5c0393be233bb8a1f501e00]
class BasicObject--><rect codeLine="15" fill="#FEFECE" filter="url(#f97cru20zjo5o)" height="73.6094" id="BasicObject" style="stroke:#A80036;stroke-width:1.5;" width="312" x="1578" y="223"/><ellipse cx="1693.75" cy="239" fill="#ADD1B2" rx="11" ry="11" style="stroke:#A80036;stroke-width:1.0;"/><path d="M1696.0938,234.6719 C1695.1563,234.2344 1694.5625,234.0938 1693.6875,234.0938 C1691.0625,234.0938 1689.0625,236.1719 1689.0625,238.8906 L1689.0625,240.0156 C1689.0625,242.5938 1691.1719,244.4844 1694.0625,244.4844 C1695.2813,244.4844 1696.4375,244.1875 1697.1875,243.6406 C1697.7656,243.2344 1698.0938,242.7813 1698.0938,242.3906 C1698.0938,241.9375 1697.7031,241.5469 1697.2344,241.5469 C1697.0156,241.5469 1696.8125,241.625 1696.625,241.8125 C1696.1719,242.2969 1696.1719,242.2969 1695.9844,242.3906 C1695.5625,242.6563 1694.875,242.7813 1694.1094,242.7813 C1692.0625,242.7813 1690.7656,241.6875 1690.7656,239.9844 L1690.7656,238.8906 C1690.7656,237.1094 1692.0156,235.7969 1693.75,235.7969 C1694.3281,235.7969 1694.9375,235.9531 1695.4063,236.2031 C1695.8906,236.4844 1696.0625,236.7031 1696.1563,237.1094 C1696.2188,237.5156 1696.25,237.6406 1696.3906,237.7656 C1696.5313,237.9063 1696.7656,238.0156 1696.9844,238.0156 C1697.25,238.0156 1697.5156,237.875 1697.6875,237.6563 C1697.7969,237.5 1697.8281,237.3125 1697.8281,236.8906 L1697.8281,235.4688 C1697.8281,235.0313 1697.8125,234.9063 1697.7188,234.75 C1697.5625,234.4844 1697.2813,234.3438 1696.9844,234.3438 C1696.6875,234.3438 1696.4844,234.4375 1696.2656,234.75 L1696.0938,234.6719 Z " fill="#000000"/><text fill="#000000" font-family="sans-serif" font-size="12" lengthAdjust="spacing" textLength="72" x="1714.25" y="243.1543">BasicObject</text><line style="stroke:#A80036;stroke-width:1.5;" x1="1579" x2="1889" y1="255" y2="255"/><text fill="#000000" font-family="sans-serif" font-size="11" lengthAdjust="spacing" textLength="107" x="1584" y="269.2104">sf::texture texture;</text><text fill="#000000" font-family="sans-serif" font-size="11" lengthAdjust="spacing" textLength="300" x="1584" y="282.0151">std::vector&lt;BasicObject **&gt;m_mapRepresentetives;</text><line style="stroke:#A80036;stroke-width:1.5;" x1="1579" x2="1889" y1="288.6094" y2="288.6094"/><!--MD5=[f59f5ded0883775009c30875d076c332]
class tile--><rect codeLine="20" fill="#FEFECE" filter="url(#f97cru20zjo5o)" height="73.6094" id="tile" style="stroke:#A80036;stroke-width:1.5;" width="256" x="104" y="13"/><ellipse cx="218.75" cy="29" fill="#ADD1B2" rx="11" ry="11" style="stroke:#A80036;stroke-width:1.0;"/><path d="M221.0938,24.6719 C220.1563,24.2344 219.5625,24.0938 218.6875,24.0938 C216.0625,24.0938 214.0625,26.1719 214.0625,28.8906 L214.0625,30.0156 C214.0625,32.5938 216.1719,34.4844 219.0625,34.4844 C220.2813,34.4844 221.4375,34.1875 222.1875,33.6406 C222.7656,33.2344 223.0938,32.7813 223.0938,32.3906 C223.0938,31.9375 222.7031,31.5469 222.2344,31.5469 C222.0156,31.5469 221.8125,31.625 221.625,31.8125 C221.1719,32.2969 221.1719,32.2969 220.9844,32.3906 C220.5625,32.6563 219.875,32.7813 219.1094,32.7813 C217.0625,32.7813 215.7656,31.6875 215.7656,29.9844 L215.7656,28.8906 C215.7656,27.1094 217.0156,25.7969 218.75,25.7969 C219.3281,25.7969 219.9375,25.9531 220.4063,26.2031 C220.8906,26.4844 221.0625,26.7031 221.1563,27.1094 C221.2188,27.5156 221.25,27.6406 221.3906,27.7656 C221.5313,27.9063 221.7656,28.0156 221.9844,28.0156 C222.25,28.0156 222.5156,27.875 222.6875,27.6563 C222.7969,27.5 222.8281,27.3125 222.8281,26.8906 L222.8281,25.4688 C222.8281,25.0313 222.8125,24.9063 222.7188,24.75 C222.5625,24.4844 222.2813,24.3438 221.9844,24.3438 C221.6875,24.3438 221.4844,24.4375 221.2656,24.75 L221.0938,24.6719 Z " fill="#000000"/><text fill="#000000" font-family="sans-serif" font-size="12" lengthAdjust="spacing" textLength="18" x="239.25" y="33.1543">tile</text><line style="stroke:#A80036;stroke-width:1.5;" x1="105" x2="359" y1="45" y2="45"/><text fill="#000000" font-family="sans-serif" font-size="11" lengthAdjust="spacing" textLength="244" x="110" y="59.2104">std::list&lt;BaseObject *&gt;m_curObjectsInTile;</text><text fill="#000000" font-family="sans-serif" font-size="11" lengthAdjust="spacing" textLength="106" x="110" y="72.0151">sf::vector2u m_loc;</text><line style="stroke:#A80036;stroke-width:1.5;" x1="105" x2="359" y1="78.6094" y2="78.6094"/><!--MD5=[babbdcee04bece8cbf7161975973616a]
class Rock--><rect codeLine="24" fill="#FEFECE" filter="url(#f97cru20zjo5o)" height="48" id="Rock" style="stroke:#A80036;stroke-width:1.5;" width="61" x="1464.5" y="26"/><ellipse cx="1479.5" cy="42" fill="#ADD1B2" rx="11" ry="11" style="stroke:#A80036;stroke-width:1.0;"/><path d="M1481.8438,37.6719 C1480.9063,37.2344 1480.3125,37.0938 1479.4375,37.0938 C1476.8125,37.0938 1474.8125,39.1719 1474.8125,41.8906 L1474.8125,43.0156 C1474.8125,45.5938 1476.9219,47.4844 1479.8125,47.4844 C1481.0313,47.4844 1482.1875,47.1875 1482.9375,46.6406 C1483.5156,46.2344 1483.8438,45.7813 1483.8438,45.3906 C1483.8438,44.9375 1483.4531,44.5469 1482.9844,44.5469 C1482.7656,44.5469 1482.5625,44.625 1482.375,44.8125 C1481.9219,45.2969 1481.9219,45.2969 1481.7344,45.3906 C1481.3125,45.6563 1480.625,45.7813 1479.8594,45.7813 C1477.8125,45.7813 1476.5156,44.6875 1476.5156,42.9844 L1476.5156,41.8906 C1476.5156,40.1094 1477.7656,38.7969 1479.5,38.7969 C1480.0781,38.7969 1480.6875,38.9531 1481.1563,39.2031 C1481.6406,39.4844 1481.8125,39.7031 1481.9063,40.1094 C1481.9688,40.5156 1482,40.6406 1482.1406,40.7656 C1482.2813,40.9063 1482.5156,41.0156 1482.7344,41.0156 C1483,41.0156 1483.2656,40.875 1483.4375,40.6563 C1483.5469,40.5 1483.5781,40.3125 1483.5781,39.8906 L1483.5781,38.4688 C1483.5781,38.0313 1483.5625,37.9063 1483.4688,37.75 C1483.3125,37.4844 1483.0313,37.3438 1482.7344,37.3438 C1482.4375,37.3438 1482.2344,37.4375 1482.0156,37.75 L1481.8438,37.6719 Z " fill="#000000"/><text fill="#000000" font-family="sans-serif" font-size="12" lengthAdjust="spacing" textLength="29" x="1493.5" y="46.1543">Rock</text><line style="stroke:#A80036;stroke-width:1.5;" x1="1465.5" x2="1524.5" y1="58" y2="58"/><line style="stroke:#A80036;stroke-width:1.5;" x1="1465.5" x2="1524.5" y1="66" y2="66"/><!--MD5=[08dfe6c59ed9ecb4018cfd2b80128be4]
class Wall--><rect codeLine="27" fill="#FEFECE" filter="url(#f97cru20zjo5o)" height="48" id="Wall" style="stroke:#A80036;stroke-width:1.5;" width="57" x="1560.5" y="26"/><ellipse cx="1575.5" cy="42" fill="#ADD1B2" rx="11" ry="11" style="stroke:#A80036;stroke-width:1.0;"/><path d="M1577.8438,37.6719 C1576.9063,37.2344 1576.3125,37.0938 1575.4375,37.0938 C1572.8125,37.0938 1570.8125,39.1719 1570.8125,41.8906 L1570.8125,43.0156 C1570.8125,45.5938 1572.9219,47.4844 1575.8125,47.4844 C1577.0313,47.4844 1578.1875,47.1875 1578.9375,46.6406 C1579.5156,46.2344 1579.8438,45.7813 1579.8438,45.3906 C1579.8438,44.9375 1579.4531,44.5469 1578.9844,44.5469 C1578.7656,44.5469 1578.5625,44.625 1578.375,44.8125 C1577.9219,45.2969 1577.9219,45.2969 1577.7344,45.3906 C1577.3125,45.6563 1576.625,45.7813 1575.8594,45.7813 C1573.8125,45.7813 1572.5156,44.6875 1572.5156,42.9844 L1572.5156,41.8906 C1572.5156,40.1094 1573.7656,38.7969 1575.5,38.7969 C1576.0781,38.7969 1576.6875,38.9531 1577.1563,39.2031 C1577.6406,39.4844 1577.8125,39.7031 1577.9063,40.1094 C1577.9688,40.5156 1578,40.6406 1578.1406,40.7656 C1578.2813,40.9063 1578.5156,41.0156 1578.7344,41.0156 C1579,41.0156 1579.2656,40.875 1579.4375,40.6563 C1579.5469,40.5 1579.5781,40.3125 1579.5781,39.8906 L1579.5781,38.4688 C1579.5781,38.0313 1579.5625,37.9063 1579.4688,37.75 C1579.3125,37.4844 1579.0313,37.3438 1578.7344,37.3438 C1578.4375,37.3438 1578.2344,37.4375 1578.0156,37.75 L1577.8438,37.6719 Z " fill="#000000"/><text fill="#000000" font-family="sans-serif" font-size="12" lengthAdjust="spacing" textLength="25" x="1589.5" y="46.1543">Wall</text><line style="stroke:#A80036;stroke-width:1.5;" x1="1561.5" x2="1616.5" y1="58" y2="58"/><line style="stroke:#A80036;stroke-width:1.5;" x1="1561.5" x2="1616.5" y1="66" y2="66"/><!--MD5=[49d94d23bcb4cd3c3698e915021c140b]
class Baba--><rect codeLine="30" fill="#FEFECE" filter="url(#f97cru20zjo5o)" height="48" id="Baba" style="stroke:#A80036;stroke-width:1.5;" width="62" x="1653" y="26"/><ellipse cx="1668" cy="42" fill="#ADD1B2" rx="11" ry="11" style="stroke:#A80036;stroke-width:1.0;"/><path d="M1670.3438,37.6719 C1669.4063,37.2344 1668.8125,37.0938 1667.9375,37.0938 C1665.3125,37.0938 1663.3125,39.1719 1663.3125,41.8906 L1663.3125,43.0156 C1663.3125,45.5938 1665.4219,47.4844 1668.3125,47.4844 C1669.5313,47.4844 1670.6875,47.1875 1671.4375,46.6406 C1672.0156,46.2344 1672.3438,45.7813 1672.3438,45.3906 C1672.3438,44.9375 1671.9531,44.5469 1671.4844,44.5469 C1671.2656,44.5469 1671.0625,44.625 1670.875,44.8125 C1670.4219,45.2969 1670.4219,45.2969 1670.2344,45.3906 C1669.8125,45.6563 1669.125,45.7813 1668.3594,45.7813 C1666.3125,45.7813 1665.0156,44.6875 1665.0156,42.9844 L1665.0156,41.8906 C1665.0156,40.1094 1666.2656,38.7969 1668,38.7969 C1668.5781,38.7969 1669.1875,38.9531 1669.6563,39.2031 C1670.1406,39.4844 1670.3125,39.7031 1670.4063,40.1094 C1670.4688,40.5156 1670.5,40.6406 1670.6406,40.7656 C1670.7813,40.9063 1671.0156,41.0156 1671.2344,41.0156 C1671.5,41.0156 1671.7656,40.875 1671.9375,40.6563 C1672.0469,40.5 1672.0781,40.3125 1672.0781,39.8906 L1672.0781,38.4688 C1672.0781,38.0313 1672.0625,37.9063 1671.9688,37.75 C1671.8125,37.4844 1671.5313,37.3438 1671.2344,37.3438 C1670.9375,37.3438 1670.7344,37.4375 1670.5156,37.75 L1670.3438,37.6719 Z " fill="#000000"/><text fill="#000000" font-family="sans-serif" font-size="12" lengthAdjust="spacing" textLength="30" x="1682" y="46.1543">Baba</text><line style="stroke:#A80036;stroke-width:1.5;" x1="1654" x2="1714" y1="58" y2="58"/><line style="stroke:#A80036;stroke-width:1.5;" x1="1654" x2="1714" y1="66" y2="66"/><!--MD5=[ebc871e406930c43cc2d3b298ca2c685]
class Water--><rect codeLine="33" fill="#FEFECE" filter="url(#f97cru20zjo5o)" height="48" id="Water" style="stroke:#A80036;stroke-width:1.5;" width="68" x="1750" y="26"/><ellipse cx="1765" cy="42" fill="#ADD1B2" rx="11" ry="11" style="stroke:#A80036;stroke-width:1.0;"/><path d="M1767.3438,37.6719 C1766.4063,37.2344 1765.8125,37.0938 1764.9375,37.0938 C1762.3125,37.0938 1760.3125,39.1719 1760.3125,41.8906 L1760.3125,43.0156 C1760.3125,45.5938 1762.4219,47.4844 1765.3125,47.4844 C1766.5313,47.4844 1767.6875,47.1875 1768.4375,46.6406 C1769.0156,46.2344 1769.3438,45.7813 1769.3438,45.3906 C1769.3438,44.9375 1768.9531,44.5469 1768.4844,44.5469 C1768.2656,44.5469 1768.0625,44.625 1767.875,44.8125 C1767.4219,45.2969 1767.4219,45.2969 1767.2344,45.3906 C1766.8125,45.6563 1766.125,45.7813 1765.3594,45.7813 C1763.3125,45.7813 1762.0156,44.6875 1762.0156,42.9844 L1762.0156,41.8906 C1762.0156,40.1094 1763.2656,38.7969 1765,38.7969 C1765.5781,38.7969 1766.1875,38.9531 1766.6563,39.2031 C1767.1406,39.4844 1767.3125,39.7031 1767.4063,40.1094 C1767.4688,40.5156 1767.5,40.6406 1767.6406,40.7656 C1767.7813,40.9063 1768.0156,41.0156 1768.2344,41.0156 C1768.5,41.0156 1768.7656,40.875 1768.9375,40.6563 C1769.0469,40.5 1769.0781,40.3125 1769.0781,39.8906 L1769.0781,38.4688 C1769.0781,38.0313 1769.0625,37.9063 1768.9688,37.75 C1768.8125,37.4844 1768.5313,37.3438 1768.2344,37.3438 C1767.9375,37.3438 1767.7344,37.4375 1767.5156,37.75 L1767.3438,37.6719 Z " fill="#000000"/><text fill="#000000" font-family="sans-serif" font-size="12" lengthAdjust="spacing" textLength="36" x="1779" y="46.1543">Water</text><line style="stroke:#A80036;stroke-width:1.5;" x1="1751" x2="1817" y1="58" y2="58"/><line style="stroke:#A80036;stroke-width:1.5;" x1="1751" x2="1817" y1="66" y2="66"/><!--MD5=[c35525647d76492dc44ac7dcedf1a370]
class Lava--><rect codeLine="36" fill="#FEFECE" filter="url(#f97cru20zjo5o)" height="48" id="Lava" style="stroke:#A80036;stroke-width:1.5;" width="59" x="1853.5" y="26"/><ellipse cx="1868.5" cy="42" fill="#ADD1B2" rx="11" ry="11" style="stroke:#A80036;stroke-width:1.0;"/><path d="M1870.8438,37.6719 C1869.9063,37.2344 1869.3125,37.0938 1868.4375,37.0938 C1865.8125,37.0938 1863.8125,39.1719 1863.8125,41.8906 L1863.8125,43.0156 C1863.8125,45.5938 1865.9219,47.4844 1868.8125,47.4844 C1870.0313,47.4844 1871.1875,47.1875 1871.9375,46.6406 C1872.5156,46.2344 1872.8438,45.7813 1872.8438,45.3906 C1872.8438,44.9375 1872.4531,44.5469 1871.9844,44.5469 C1871.7656,44.5469 1871.5625,44.625 1871.375,44.8125 C1870.9219,45.2969 1870.9219,45.2969 1870.7344,45.3906 C1870.3125,45.6563 1869.625,45.7813 1868.8594,45.7813 C1866.8125,45.7813 1865.5156,44.6875 1865.5156,42.9844 L1865.5156,41.8906 C1865.5156,40.1094 1866.7656,38.7969 1868.5,38.7969 C1869.0781,38.7969 1869.6875,38.9531 1870.1563,39.2031 C1870.6406,39.4844 1870.8125,39.7031 1870.9063,40.1094 C1870.9688,40.5156 1871,40.6406 1871.1406,40.7656 C1871.2813,40.9063 1871.5156,41.0156 1871.7344,41.0156 C1872,41.0156 1872.2656,40.875 1872.4375,40.6563 C1872.5469,40.5 1872.5781,40.3125 1872.5781,39.8906 L1872.5781,38.4688 C1872.5781,38.0313 1872.5625,37.9063 1872.4688,37.75 C1872.3125,37.4844 1872.0313,37.3438 1871.7344,37.3438 C1871.4375,37.3438 1871.2344,37.4375 1871.0156,37.75 L1870.8438,37.6719 Z " fill="#000000"/><text fill="#000000" font-family="sans-serif" font-size="12" lengthAdjust="spacing" textLength="27" x="1882.5" y="46.1543">Lava</text><line style="stroke:#A80036;stroke-width:1.5;" x1="1854.5" x2="1911.5" y1="58" y2="58"/><line style="stroke:#A80036;stroke-width:1.5;" x1="1854.5" x2="1911.5" y1="66" y2="66"/><!--MD5=[f031d4e33d5f3458ef7f3b0d85782377]
class Flag--><rect codeLine="39" fill="#FEFECE" filter="url(#f97cru20zjo5o)" height="48" id="Flag" style="stroke:#A80036;stroke-width:1.5;" width="57" x="1947.5" y="26"/><ellipse cx="1962.5" cy="42" fill="#ADD1B2" rx="11" ry="11" style="stroke:#A80036;stroke-width:1.0;"/><path d="M1964.8438,37.6719 C1963.9063,37.2344 1963.3125,37.0938 1962.4375,37.0938 C1959.8125,37.0938 1957.8125,39.1719 1957.8125,41.8906 L1957.8125,43.0156 C1957.8125,45.5938 1959.9219,47.4844 1962.8125,47.4844 C1964.0313,47.4844 1965.1875,47.1875 1965.9375,46.6406 C1966.5156,46.2344 1966.8438,45.7813 1966.8438,45.3906 C1966.8438,44.9375 1966.4531,44.5469 1965.9844,44.5469 C1965.7656,44.5469 1965.5625,44.625 1965.375,44.8125 C1964.9219,45.2969 1964.9219,45.2969 1964.7344,45.3906 C1964.3125,45.6563 1963.625,45.7813 1962.8594,45.7813 C1960.8125,45.7813 1959.5156,44.6875 1959.5156,42.9844 L1959.5156,41.8906 C1959.5156,40.1094 1960.7656,38.7969 1962.5,38.7969 C1963.0781,38.7969 1963.6875,38.9531 1964.1563,39.2031 C1964.6406,39.4844 1964.8125,39.7031 1964.9063,40.1094 C1964.9688,40.5156 1965,40.6406 1965.1406,40.7656 C1965.2813,40.9063 1965.5156,41.0156 1965.7344,41.0156 C1966,41.0156 1966.2656,40.875 1966.4375,40.6563 C1966.5469,40.5 1966.5781,40.3125 1966.5781,39.8906 L1966.5781,38.4688 C1966.5781,38.0313 1966.5625,37.9063 1966.4688,37.75 C1966.3125,37.4844 1966.0313,37.3438 1965.7344,37.3438 C1965.4375,37.3438 1965.2344,37.4375 1965.0156,37.75 L1964.8438,37.6719 Z " fill="#000000"/><text fill="#000000" font-family="sans-serif" font-size="12" lengthAdjust="spacing" textLength="25" x="1976.5" y="46.1543">Flag</text><line style="stroke:#A80036;stroke-width:1.5;" x1="1948.5" x2="2003.5" y1="58" y2="58"/><line style="stroke:#A80036;stroke-width:1.5;" x1="1948.5" x2="2003.5" y1="66" y2="66"/><!--MD5=[4cf87534c235239d37db4adfd136fff4]
class Rule--><rect codeLine="42" fill="#FEFECE" filter="url(#f97cru20zjo5o)" height="86.4141" id="Rule" style="stroke:#A80036;stroke-width:1.5;" width="204" x="395" y="7"/><ellipse cx="480.25" cy="23" fill="#ADD1B2" rx="11" ry="11" style="stroke:#A80036;stroke-width:1.0;"/><path d="M482.5938,18.6719 C481.6563,18.2344 481.0625,18.0938 480.1875,18.0938 C477.5625,18.0938 475.5625,20.1719 475.5625,22.8906 L475.5625,24.0156 C475.5625,26.5938 477.6719,28.4844 480.5625,28.4844 C481.7813,28.4844 482.9375,28.1875 483.6875,27.6406 C484.2656,27.2344 484.5938,26.7813 484.5938,26.3906 C484.5938,25.9375 484.2031,25.5469 483.7344,25.5469 C483.5156,25.5469 483.3125,25.625 483.125,25.8125 C482.6719,26.2969 482.6719,26.2969 482.4844,26.3906 C482.0625,26.6563 481.375,26.7813 480.6094,26.7813 C478.5625,26.7813 477.2656,25.6875 477.2656,23.9844 L477.2656,22.8906 C477.2656,21.1094 478.5156,19.7969 480.25,19.7969 C480.8281,19.7969 481.4375,19.9531 481.9063,20.2031 C482.3906,20.4844 482.5625,20.7031 482.6563,21.1094 C482.7188,21.5156 482.75,21.6406 482.8906,21.7656 C483.0313,21.9063 483.2656,22.0156 483.4844,22.0156 C483.75,22.0156 484.0156,21.875 484.1875,21.6563 C484.2969,21.5 484.3281,21.3125 484.3281,20.8906 L484.3281,19.4688 C484.3281,19.0313 484.3125,18.9063 484.2188,18.75 C484.0625,18.4844 483.7813,18.3438 483.4844,18.3438 C483.1875,18.3438 482.9844,18.4375 482.7656,18.75 L482.5938,18.6719 Z " fill="#000000"/><text fill="#000000" font-family="sans-serif" font-size="12" lengthAdjust="spacing" textLength="25" x="500.75" y="27.1543">Rule</text><line style="stroke:#A80036;stroke-width:1.5;" x1="396" x2="598" y1="39" y2="39"/><line style="stroke:#A80036;stroke-width:1.5;" x1="396" x2="598" y1="47" y2="47"/><text fill="#000000" font-family="sans-serif" font-size="11" lengthAdjust="spacing" textLength="181" x="401" y="61.2104">Rule(Noun *,Conjunction *,Adj*);</text><text fill="#000000" font-family="sans-serif" font-size="11" lengthAdjust="spacing" textLength="192" x="401" y="74.0151">Rule(Noun *,Conjunction *,Noun*);</text><text fill="#000000" font-family="sans-serif" font-size="11" lengthAdjust="spacing" textLength="167" x="401" y="86.8198">Rule(Rule,Conjunction *,Adj*);</text><!--MD5=[1d7ba1c7002d54515419844fbd155368]
class Controller--><rect codeLine="49" fill="#FEFECE" filter="url(#f97cru20zjo5o)" height="73.6094" id="Controller" style="stroke:#A80036;stroke-width:1.5;" width="367" x="634.5" y="13"/><ellipse cx="784.25" cy="29" fill="#ADD1B2" rx="11" ry="11" style="stroke:#A80036;stroke-width:1.0;"/><path d="M786.5938,24.6719 C785.6563,24.2344 785.0625,24.0938 784.1875,24.0938 C781.5625,24.0938 779.5625,26.1719 779.5625,28.8906 L779.5625,30.0156 C779.5625,32.5938 781.6719,34.4844 784.5625,34.4844 C785.7813,34.4844 786.9375,34.1875 787.6875,33.6406 C788.2656,33.2344 788.5938,32.7813 788.5938,32.3906 C788.5938,31.9375 788.2031,31.5469 787.7344,31.5469 C787.5156,31.5469 787.3125,31.625 787.125,31.8125 C786.6719,32.2969 786.6719,32.2969 786.4844,32.3906 C786.0625,32.6563 785.375,32.7813 784.6094,32.7813 C782.5625,32.7813 781.2656,31.6875 781.2656,29.9844 L781.2656,28.8906 C781.2656,27.1094 782.5156,25.7969 784.25,25.7969 C784.8281,25.7969 785.4375,25.9531 785.9063,26.2031 C786.3906,26.4844 786.5625,26.7031 786.6563,27.1094 C786.7188,27.5156 786.75,27.6406 786.8906,27.7656 C787.0313,27.9063 787.2656,28.0156 787.4844,28.0156 C787.75,28.0156 788.0156,27.875 788.1875,27.6563 C788.2969,27.5 788.3281,27.3125 788.3281,26.8906 L788.3281,25.4688 C788.3281,25.0313 788.3125,24.9063 788.2188,24.75 C788.0625,24.4844 787.7813,24.3438 787.4844,24.3438 C787.1875,24.3438 786.9844,24.4375 786.7656,24.75 L786.5938,24.6719 Z " fill="#000000"/><text fill="#000000" font-family="sans-serif" font-size="12" lengthAdjust="spacing" textLength="59" x="804.75" y="33.1543">Controller</text><line style="stroke:#A80036;stroke-width:1.5;" x1="635.5" x2="1000.5" y1="45" y2="45"/><text fill="#000000" font-family="sans-serif" font-size="11" lengthAdjust="spacing" textLength="106" x="640.5" y="59.2104">FileHandler m_file;</text><text fill="#000000" font-family="sans-serif" font-size="11" lengthAdjust="spacing" textLength="355" x="640.5" y="72.0151">std::unique_ptr&lt;Board&gt; m_board;//will be reseted every level</text><line style="stroke:#A80036;stroke-width:1.5;" x1="635.5" x2="1000.5" y1="78.6094" y2="78.6094"/><!--MD5=[9563755d011c5cec7ec66dc53565a59e]
class Board--><rect codeLine="54" fill="#FEFECE" filter="url(#f97cru20zjo5o)" height="60.8047" id="Board" style="stroke:#A80036;stroke-width:1.5;" width="450" x="7" y="229.5"/><ellipse cx="209.75" cy="245.5" fill="#ADD1B2" rx="11" ry="11" style="stroke:#A80036;stroke-width:1.0;"/><path d="M212.0938,241.1719 C211.1563,240.7344 210.5625,240.5938 209.6875,240.5938 C207.0625,240.5938 205.0625,242.6719 205.0625,245.3906 L205.0625,246.5156 C205.0625,249.0938 207.1719,250.9844 210.0625,250.9844 C211.2813,250.9844 212.4375,250.6875 213.1875,250.1406 C213.7656,249.7344 214.0938,249.2813 214.0938,248.8906 C214.0938,248.4375 213.7031,248.0469 213.2344,248.0469 C213.0156,248.0469 212.8125,248.125 212.625,248.3125 C212.1719,248.7969 212.1719,248.7969 211.9844,248.8906 C211.5625,249.1563 210.875,249.2813 210.1094,249.2813 C208.0625,249.2813 206.7656,248.1875 206.7656,246.4844 L206.7656,245.3906 C206.7656,243.6094 208.0156,242.2969 209.75,242.2969 C210.3281,242.2969 210.9375,242.4531 211.4063,242.7031 C211.8906,242.9844 212.0625,243.2031 212.1563,243.6094 C212.2188,244.0156 212.25,244.1406 212.3906,244.2656 C212.5313,244.4063 212.7656,244.5156 212.9844,244.5156 C213.25,244.5156 213.5156,244.375 213.6875,244.1563 C213.7969,244 213.8281,243.8125 213.8281,243.3906 L213.8281,241.9688 C213.8281,241.5313 213.8125,241.4063 213.7188,241.25 C213.5625,240.9844 213.2813,240.8438 212.9844,240.8438 C212.6875,240.8438 212.4844,240.9375 212.2656,241.25 L212.0938,241.1719 Z " fill="#000000"/><text fill="#000000" font-family="sans-serif" font-size="12" lengthAdjust="spacing" textLength="36" x="230.25" y="249.6543">Board</text><line style="stroke:#A80036;stroke-width:1.5;" x1="8" x2="456" y1="261.5" y2="261.5"/><text fill="#000000" font-family="sans-serif" font-size="11" lengthAdjust="spacing" textLength="438" x="13" y="275.7104">std::vector&lt;tile&gt; m_map;//couple of object could be located in the same tile</text><line style="stroke:#A80036;stroke-width:1.5;" x1="8" x2="456" y1="282.3047" y2="282.3047"/><!--MD5=[40d00155a463640e487a399d47f47feb]
class FileHandler--><rect codeLine="59" fill="#FEFECE" filter="url(#f97cru20zjo5o)" height="214.4609" id="FileHandler" style="stroke:#A80036;stroke-width:1.5;" width="338" x="492" y="153"/><ellipse cx="622.75" cy="169" fill="#ADD1B2" rx="11" ry="11" style="stroke:#A80036;stroke-width:1.0;"/><path d="M625.0938,164.6719 C624.1563,164.2344 623.5625,164.0938 622.6875,164.0938 C620.0625,164.0938 618.0625,166.1719 618.0625,168.8906 L618.0625,170.0156 C618.0625,172.5938 620.1719,174.4844 623.0625,174.4844 C624.2813,174.4844 625.4375,174.1875 626.1875,173.6406 C626.7656,173.2344 627.0938,172.7813 627.0938,172.3906 C627.0938,171.9375 626.7031,171.5469 626.2344,171.5469 C626.0156,171.5469 625.8125,171.625 625.625,171.8125 C625.1719,172.2969 625.1719,172.2969 624.9844,172.3906 C624.5625,172.6563 623.875,172.7813 623.1094,172.7813 C621.0625,172.7813 619.7656,171.6875 619.7656,169.9844 L619.7656,168.8906 C619.7656,167.1094 621.0156,165.7969 622.75,165.7969 C623.3281,165.7969 623.9375,165.9531 624.4063,166.2031 C624.8906,166.4844 625.0625,166.7031 625.1563,167.1094 C625.2188,167.5156 625.25,167.6406 625.3906,167.7656 C625.5313,167.9063 625.7656,168.0156 625.9844,168.0156 C626.25,168.0156 626.5156,167.875 626.6875,167.6563 C626.7969,167.5 626.8281,167.3125 626.8281,166.8906 L626.8281,165.4688 C626.8281,165.0313 626.8125,164.9063 626.7188,164.75 C626.5625,164.4844 626.2813,164.3438 625.9844,164.3438 C625.6875,164.3438 625.4844,164.4375 625.2656,164.75 L625.0938,164.6719 Z " fill="#000000"/><text fill="#000000" font-family="sans-serif" font-size="12" lengthAdjust="spacing" textLength="68" x="643.25" y="173.1543">FileHandler</text><line style="stroke:#A80036;stroke-width:1.5;" x1="493" x2="829" y1="185" y2="185"/><text fill="#000000" font-family="sans-serif" font-size="11" lengthAdjust="spacing" textLength="43" x="498" y="199.2104">private:</text><text fill="#000000" font-family="sans-serif" font-size="11" lengthAdjust="spacing" textLength="43" x="498" y="212.0151">private:</text><text fill="#000000" font-family="sans-serif" font-size="11" lengthAdjust="spacing" textLength="117" x="498" y="224.8198">sf::Vector2u m_Size;</text><text fill="#000000" font-family="sans-serif" font-size="11" lengthAdjust="spacing" textLength="213" x="498" y="237.6245">std::vector&lt;std::string&gt;m_fileHandler;</text><text fill="#000000" font-family="sans-serif" font-size="11" lengthAdjust="spacing" textLength="106" x="498" y="250.4292">std::ifstream m_Cf;</text><line style="stroke:#A80036;stroke-width:1.5;" x1="493" x2="829" y1="257.0234" y2="257.0234"/><polygon fill="#4177AF" points="503,264.0234,499,270.0234,507,270.0234" style="stroke:#1963A0;stroke-width:1.0;"/><text fill="#000000" font-family="sans-serif" font-size="11" lengthAdjust="spacing" textLength="75" x="512" y="271.2339">FileHandler();</text><text fill="#000000" font-family="sans-serif" font-size="11" lengthAdjust="spacing" textLength="312" x="512" y="284.0386">char what_In_Location(const sf::Vector2u cur_Loc)const;</text><text fill="#000000" font-family="sans-serif" font-size="11" lengthAdjust="spacing" textLength="164" x="512" y="296.8433">sf::Vector2u get_Size() const</text><text fill="#000000" font-family="sans-serif" font-size="11" lengthAdjust="spacing" textLength="107" x="512" y="309.6479">bool rebuild_Map();</text><text fill="#000000" font-family="sans-serif" font-size="11" lengthAdjust="spacing" textLength="298" x="512" y="322.4526">void change_Map(sf::Vector2i change, char request);</text><text fill="#000000" font-family="sans-serif" font-size="11" lengthAdjust="spacing" textLength="89" x="512" y="335.2573">bool set_Size();</text><text fill="#000000" font-family="sans-serif" font-size="11" lengthAdjust="spacing" textLength="86" x="512" y="348.062">void set_Map();</text><text fill="#000000" font-family="sans-serif" font-size="11" lengthAdjust="spacing" textLength="93" x="512" y="360.8667">void file_close();</text><!--MD5=[665a791f4d9ecd6f7fcee7211fc4d265]
link Noun to Word--><path codeLine="76" d="M1080.97,74.054 C1099.57,107.132 1134.26,168.799 1158.44,211.791 " fill="none" id="Noun-to-Word" style="stroke:#A80036;stroke-width:1.0;"/><polygon fill="none" points="1164.7,208.634,1168.4,229.497,1152.5,215.497,1164.7,208.634" style="stroke:#A80036;stroke-width:1.0;"/><!--MD5=[ed07d8aedeaddebfe2aa56b4fc8a4878]
link Adjective to Word--><path codeLine="77" d="M1326.36,80.801 C1298.85,115.477 1253.13,173.114 1221.16,213.422 " fill="none" id="Adjective-to-Word" style="stroke:#A80036;stroke-width:1.0;"/><polygon fill="none" points="1226.51,217.936,1208.6,229.254,1215.54,209.235,1226.51,217.936" style="stroke:#A80036;stroke-width:1.0;"/><!--MD5=[873045eb71b9167570b5efcee1e22f50]
link Conjunction to Word--><path codeLine="78" d="M1185,74.054 C1185,106.538 1185,166.595 1185,209.46 " fill="none" id="Conjunction-to-Word" style="stroke:#A80036;stroke-width:1.0;"/><polygon fill="none" points="1192,209.497,1185,229.497,1178,209.497,1192,209.497" style="stroke:#A80036;stroke-width:1.0;"/><!--MD5=[0895846c35a080aaac1c65215a186257]
link Rock to BasicObject--><path codeLine="79" d="M1521.39,74.123 C1528.41,80.263 1535.99,86.887 1543,93 C1588.01,132.249 1639.07,176.618 1677.06,209.604 " fill="none" id="Rock-to-BasicObject" style="stroke:#A80036;stroke-width:1.0;"/><polygon fill="none" points="1681.72,204.375,1692.23,222.772,1672.54,214.948,1681.72,204.375" style="stroke:#A80036;stroke-width:1.0;"/><!--MD5=[e9820329d80eb6556f0500fc81731bbc]
link Baba to BasicObject--><path codeLine="80" d="M1689.54,74.054 C1696.99,105.051 1710.48,161.152 1720.65,203.466 " fill="none" id="Baba-to-BasicObject" style="stroke:#A80036;stroke-width:1.0;"/><polygon fill="none" points="1727.47,201.878,1725.34,222.96,1713.86,205.15,1727.47,201.878" style="stroke:#A80036;stroke-width:1.0;"/><!--MD5=[ae72bd8f7c7d0cf2cc0abae95b2e7777]
link Water to BasicObject--><path codeLine="81" d="M1778.46,74.054 C1771.01,105.051 1757.52,161.152 1747.35,203.466 " fill="none" id="Water-to-BasicObject" style="stroke:#A80036;stroke-width:1.0;"/><polygon fill="none" points="1754.14,205.15,1742.66,222.96,1740.53,201.878,1754.14,205.15" style="stroke:#A80036;stroke-width:1.0;"/><!--MD5=[e534f73d9924ed6fd76dbd3b0d527a05]
link Lava to BasicObject--><path codeLine="82" d="M1866.49,74.054 C1843.73,105.825 1802.07,163.973 1771.53,206.613 " fill="none" id="Lava-to-BasicObject" style="stroke:#A80036;stroke-width:1.0;"/><polygon fill="none" points="1777.15,210.778,1759.82,222.96,1765.77,202.625,1777.15,210.778" style="stroke:#A80036;stroke-width:1.0;"/><!--MD5=[aa95c34405a093fd6df5fd0914a8745c]
link Wall to BasicObject--><path codeLine="83" d="M1605.07,74.054 C1627.17,105.755 1667.58,163.715 1697.28,206.329 " fill="none" id="Wall-to-BasicObject" style="stroke:#A80036;stroke-width:1.0;"/><polygon fill="none" points="1703.18,202.55,1708.88,222.96,1691.7,210.557,1703.18,202.55" style="stroke:#A80036;stroke-width:1.0;"/><!--MD5=[c807567884f342f78f681bf506c413e5]
link Flag to BasicObject--><path codeLine="84" d="M1950.85,74.278 C1944.12,80.417 1936.82,87.001 1930,93 C1884.53,132.988 1832.15,177.26 1792.99,210.02 " fill="none" id="Flag-to-BasicObject" style="stroke:#A80036;stroke-width:1.0;"/><polygon fill="none" points="1797.44,215.419,1777.6,222.864,1788.47,204.672,1797.44,215.419" style="stroke:#A80036;stroke-width:1.0;"/><!--MD5=[23eb8df131c1a4446d5426ecfbbed318]
link tile to Rule--><!--MD5=[1e0ccf71d111e2f750fd95b85572f847]
link Rule to Controller--><!--MD5=[2a08f9269e91318503d0be315a01ac33]
link tile to Board--><!--MD5=[d7a979f41a04408f1d92512cb1802204]
link Board to FileHandler--><!--MD5=[29457ccc7bb6aa28cf8aaf0accef2d1d]
@startuml
class Word{
string m_word
}

class Noun{
}

class Conjunction{
}

class Adjective{
aftterCollision(baseObject 
}

class BasicObject{
sf::texture texture;
std::vector<BasicObject **>m_mapRepresentetives;
}

class tile{
std::list<BaseObject *>m_curObjectsInTile;
sf::vector2u m_loc;
}
class Rock{
}

class Wall{
}

class Baba{
}

class Water{
}

class Lava{
}

class Flag{
}

class Rule{
Rule(Noun *,Conjunction *,Adj*);
Rule(Noun *,Conjunction *,Noun*);
Rule(Rule,Conjunction *,Adj*);
}


class Controller{
FileHandler m_file;
std::unique_ptr<Board> m_board;//will be reseted every level
}

class Board{

std::vector<tile> m_map;//couple of object could be located in the same tile
}

class FileHandler{
~FileHandler();
char what_In_Location(const sf::Vector2u cur_Loc)const;
sf::Vector2u get_Size() const
bool rebuild_Map();
void change_Map(sf::Vector2i change, char request);
bool set_Size();
void set_Map();	
private:
void file_close();
private:
sf::Vector2u m_Size;
std::vector<std::string>m_fileHandler;
std::ifstream m_Cf;

}

Noun - -|>Word
Adjective - -|>Word
Conjunction- -|>Word
Rock- -|>BasicObject
Baba- -|>BasicObject
Water- -|>BasicObject
Lava- -|>BasicObject
Wall- -|>BasicObject
Flag- -|>BasicObject
@enduml

PlantUML version 1.2021.7(Sun May 23 12:40:07 UTC 2021)
(GPL source distribution)
Java Runtime: Java(TM) SE Runtime Environment
JVM: Java HotSpot(TM) 64-Bit Server VM
Default Encoding: UTF-8
Language: en
Country: US
--></g></svg>